Coordinates
version=1
nRows=8
nColumns=46
inDegrees=yes

Units are S.I. units (second, meters, Newtons, ...)
Angles are in degrees.

endheader
time	pelvis_tilt	pelvis_list	pelvis_rotation	pelvis_tx	pelvis_ty	pelvis_tz	bb_angle	bb_tx	bb_ty	bb_tz	hip_flexion_r	hip_adduction_r	hip_rotation_r	knee_angle_r	knee_angle_r_beta	ankle_angle_r	subtalar_angle_r	mtp_angle_r	crank_angle_r	hip_flexion_l	hip_adduction_l	hip_rotation_l	knee_angle_l	knee_angle_l_beta	ankle_angle_l	subtalar_angle_l	mtp_angle_l	crank_angle_l	lumbar_extension	lumbar_bending	lumbar_rotation	arm_flex_r	arm_add_r	arm_rot_r	elbow_flex_r	pro_sup_r	wrist_flex_r	wrist_dev_r	arm_flex_l	arm_add_l	arm_rot_l	elbow_flex_l	pro_sup_l	wrist_flex_l	wrist_dev_l
      0.00500000	    -18.14852607	     -0.66431604	     -0.60305877	      0.08013300	      1.09566776	     -0.25954778	      0.00000000	      0.50000000	      0.00000000	      0.25000000	     79.15968654	     -2.45320628	      1.07294330	     78.82534419	      1.37576179	      7.15282645	    -11.08819619	      0.00000000	      0.00000000	     56.09928789	     -8.12881452	      1.03815973	     80.49382439	      1.40488226	      9.78214674	     -3.66842825	      0.00000000	      0.00000000	    -47.07582384	     -0.09632909	      4.05276775	     89.48216049	    -10.18449795	     47.28872106	     22.10252550	     25.53347742	      0.00000000	      0.00000000	     89.56575672	     -4.38475493	     18.61621014	     47.41998511	     28.56362043	      0.00000000	      0.00000000
      0.01000000	    -18.17874993	     -0.69814348	     -0.56210060	      0.08009836	      1.09560148	     -0.25963392	      0.00000000	      0.50000000	      0.00000000	      0.25000000	     79.19604725	     -2.48192310	      1.04738022	     78.83959696	      1.37601055	      7.14575564	    -11.09460594	      0.00000000	      0.00000000	     56.15054129	     -8.10659773	      1.10288069	     80.50241939	      1.40503227	      9.75081605	     -3.66652587	      0.00000000	      0.00000000	    -47.04191468	     -0.02897686	      4.03481862	     89.46123680	     -9.70101660	     44.93746459	     21.68195838	     27.13039171	      0.00000000	      0.00000000	     89.57368046	     -4.34284972	     18.52414418	     46.99362114	     30.22106075	      0.00000000	      0.00000000
      0.01500000	    -18.12981216	     -0.64050976	     -0.59704802	      0.08012930	      1.09570695	     -0.25957418	      0.00000000	      0.50000000	      0.00000000	      0.25000000	     79.15710637	     -2.46723812	      1.10279585	     78.84734491	      1.37614578	      7.13741614	    -11.09365354	      0.00000000	      0.00000000	     56.06672652	     -8.10389069	      1.02004567	     80.47065161	      1.40447782	      9.73849519	     -3.67830569	      0.00000000	      0.00000000	    -47.10590376	     -0.10262208	      3.96586273	     89.47520678	     -9.79421490	     45.74287693	     21.71877929	     26.80987635	      0.00000000	      0.00000000	     89.56981038	     -4.43718044	     18.52254489	     47.18447199	     30.14180569	      0.00000000	      0.00000000
      0.02000000	    -18.08901858	     -0.59520501	     -0.53517173	      0.08014167	      1.09583057	     -0.25979730	      0.00000000	      0.50000000	      0.00000000	      0.25000000	     79.14581235	     -2.57080740	      1.12927199	     78.88962498	      1.37688370	      7.12873516	    -10.99805817	      0.00000000	      0.00000000	     55.97818068	     -7.95067320	      1.05878655	     80.41666854	      1.40353564	      9.78175516	     -3.81488767	      0.00000000	      0.00000000	    -47.14085896	     -0.08881125	      3.87685361	     89.48730169	     -9.95423297	     46.60610484	     21.54219027	     27.97704816	      0.00000000	      0.00000000	     89.56843447	     -4.44957053	     18.55314045	     47.14372383	     31.12379470	      0.00000000	      0.00000000
      0.02500000	    -18.14949009	     -0.61709636	     -0.57640433	      0.08008394	      1.09585690	     -0.25974821	      0.00000000	      0.50000000	      0.00000000	      0.25000000	     79.21239870	     -2.52491525	      1.13749852	     78.89531368	      1.37698299	      7.13336221	    -11.01118021	      0.00000000	      0.00000000	     56.05175062	     -8.01378008	      1.03583685	     80.42305859	      1.40364717	      9.76508002	     -3.80408041	      0.00000000	      0.00000000	    -47.06105434	     -0.06819709	      4.17045189	     89.45330753	    -10.15944518	     45.88625703	     21.67136727	     28.59284649	      0.00000000	      0.00000000	     89.58021159	     -4.23911419	     18.61875472	     46.83931080	     31.64142169	      0.00000000	      0.00000000
      0.03000000	    -18.12669210	     -0.65514410	     -0.56419778	      0.08006759	      1.09594348	     -0.25962024	      0.00000000	      0.50000000	      0.00000000	      0.25000000	     79.19015222	     -2.50112567	      1.11323487	     78.90729643	      1.37719213	      7.11016051	    -11.00074959	      0.00000000	      0.00000000	     56.02834876	     -8.04924962	      1.07339996	     80.40288816	      1.40329513	      9.69645410	     -3.80690437	      0.00000000	      0.00000000	    -47.10652940	     -0.07517794	      3.99183963	     89.47306131	     -9.79686345	     45.20837428	     21.19106764	     29.81567798	      0.00000000	      0.00000000	     89.57397306	     -4.45577445	     18.47139487	     46.83544940	     32.73772939	      0.00000000	      0.00000000
      0.03500000	    -18.09692018	     -0.62874668	     -0.62360251	      0.08008122	      1.09599121	     -0.25955961	      0.00000000	      0.50000000	      0.00000000	      0.25000000	     79.16715535	     -2.44816333	      1.15159347	     78.90996267	      1.37723866	      7.10184989	    -11.07703853	      0.00000000	      0.00000000	     55.97713829	     -8.08113192	      1.01724369	     80.39701294	      1.40319258	      9.73462568	     -3.78748286	      0.00000000	      0.00000000	    -47.11264634	     -0.16247390	      4.07296579	     89.48570664	    -10.38809160	     47.53285122	     21.56795993	     29.06979119	      0.00000000	      0.00000000	     89.57243597	     -4.42645704	     18.70556170	     46.92600471	     32.17645423	      0.00000000	      0.00000000
      0.04000000	    -18.09861762	     -0.64297134	     -0.59369446	      0.08006762	      1.09601095	     -0.25962246	      0.00000000	      0.50000000	      0.00000000	      0.25000000	     79.16542223	     -2.47786455	      1.13370050	     78.91127140	      1.37726150	      7.11943676	    -11.05718529	      0.00000000	      0.00000000	     55.98210771	     -8.05572990	      1.05192429	     80.38237166	      1.40293705	      9.69564212	     -3.83698812	      0.00000000	      0.00000000	    -47.12529266	     -0.10547687	      4.00932926	     89.47225713	     -9.96871472	     45.98107488	     21.49113036	     28.62153877	      0.00000000	      0.00000000	     89.57566039	     -4.42156947	     18.52798541	     46.90624979	     32.06985418	      0.00000000	      0.00000000
